<?xml version="1.0" standalone="no"?>
<!DOCTYPE svg PUBLIC "-//W3C//DTD SVG 20010904//EN"
 "http://www.w3.org/TR/2001/REC-SVG-20010904/DTD/svg10.dtd">
<svg version="1.0" xmlns="http://www.w3.org/2000/svg"
 width="651.000000pt" height="651.000000pt" viewBox="0 0 651.000000 651.000000"
 preserveAspectRatio="xMidYMid meet">
<metadata>
Created by potrace 1.14, written by Peter Selinger 2001-2017
</metadata>
<g transform="translate(0.000000,651.000000) scale(0.100000,-0.100000)"
fill="#000000" stroke="none">
<path d="M2315 6456 c-22 -13 -166 -97 -320 -186 -154 -90 -293 -171 -310
-180 -31 -18 -257 -149 -310 -180 -390 -227 -668 -388 -696 -404 -217 -123
-228 -131 -214 -167 3 -8 22 -23 43 -34 20 -11 48 -27 62 -36 14 -9 45 -27 70
-41 53 -29 652 -375 915 -528 50 -29 108 -62 130 -75 57 -32 97 -55 200 -115
50 -29 108 -63 130 -75 22 -13 81 -46 130 -75 50 -29 106 -62 125 -72 97 -56
120 -71 121 -81 1 -7 1 -131 1 -277 0 -264 3 -290 34 -290 12 0 310 170 821
466 18 11 148 86 290 168 142 83 294 171 338 197 44 25 136 79 205 119 69 40
153 89 187 109 51 29 63 41 63 62 0 23 -16 36 -146 110 -177 102 -203 116
-324 186 -52 31 -108 63 -125 73 -16 9 -88 51 -160 92 -71 41 -188 109 -260
150 -332 192 -729 421 -815 471 l-95 55 -2 278 c-1 254 -3 279 -19 291 -23 16
-21 17 -69 -11z"/>
<path d="M6000 4402 c-19 -10 -62 -35 -95 -54 -52 -30 -171 -99 -295 -170 -19
-11 -125 -72 -235 -136 -110 -63 -238 -137 -285 -164 -47 -26 -92 -53 -100
-58 -8 -5 -37 -22 -65 -38 -27 -16 -67 -38 -87 -50 -21 -12 -53 -30 -70 -41
-18 -10 -68 -39 -111 -65 -43 -25 -81 -46 -83 -46 -2 0 -23 -12 -45 -26 -23
-14 -60 -36 -82 -49 -23 -13 -109 -62 -191 -109 -83 -48 -156 -84 -164 -81 -7
3 -73 39 -145 82 -73 42 -145 84 -162 93 -16 10 -57 34 -90 54 -65 39 -99 45
-109 19 -6 -15 -7 -480 -5 -1718 1 -297 5 -475 11 -482 18 -22 43 -14 137 42
51 30 93 55 96 55 2 0 53 29 114 65 60 36 114 65 120 65 5 0 11 4 13 8 2 4 54
37 117 72 63 36 132 76 155 88 22 13 97 57 166 97 69 40 192 111 274 159 82
47 151 86 153 86 2 0 29 16 59 35 30 19 57 35 59 35 3 0 38 20 78 44 39 24
151 89 248 144 l177 102 196 -115 c289 -168 278 -163 304 -154 l22 8 -3 1101
c-2 953 -5 1102 -17 1110 -20 13 -21 13 -60 -8z"/>
<path d="M1002 3673 c-5 -10 -8 -515 -8 -1121 1 -725 -2 -1107 -9 -1112 -8 -7
-83 -51 -160 -94 -168 -94 -296 -170 -305 -181 -17 -20 -3 -52 28 -68 24 -12
274 -156 857 -492 94 -54 190 -109 215 -123 25 -14 83 -47 130 -75 47 -27 101
-59 120 -70 19 -11 96 -54 170 -97 74 -43 152 -87 172 -99 38 -21 62 -35 148
-85 25 -14 50 -26 57 -26 40 0 39 -21 39 1138 l-1 1112 45 25 c25 14 52 30 60
35 15 9 177 102 260 148 91 51 120 73 120 90 0 23 -9 34 -47 55 -18 10 -193
110 -390 224 -197 113 -378 217 -403 231 -25 14 -61 35 -80 47 -19 12 -64 38
-100 57 -36 20 -177 101 -315 180 -137 79 -318 183 -401 231 -83 48 -160 87
-172 87 -12 0 -25 -8 -30 -17z"/>
</g>
</svg>
