<svg width="95" height="50" viewBox="0 0 95 50" fill="none" xmlns="http://www.w3.org/2000/svg">
<path d="M0.621582 16.1805V8.25995V0.339355H7.41135L9.63749 7.80734H10.0827L12.3089 0.339355H19.0986V16.1805H14.4237V8.71255H13.9785L11.7523 16.1805H7.96789L5.74173 8.71255H5.2965V16.1805H0.621582Z" fill="#FF5151"/>
<path d="M31.8196 14.1212C30.3653 15.6449 28.5398 16.4068 26.3432 16.4068C24.1469 16.4068 22.3141 15.6449 20.8447 14.1212C19.3903 12.5823 18.6631 10.6286 18.6631 8.25993C18.6631 5.89129 19.3903 3.94509 20.8447 2.42133C22.3141 0.882465 24.1469 0.113037 26.3432 0.113037C28.5398 0.113037 30.3653 0.882465 31.8196 2.42133C33.2889 3.94509 34.0235 5.89129 34.0235 8.25993C34.0235 10.6286 33.2889 12.5823 31.8196 14.1212ZM24.184 10.8171C24.7627 11.4508 25.4824 11.7676 26.3432 11.7676C27.204 11.7676 27.9164 11.4508 28.4804 10.8171C29.0593 10.1684 29.3485 9.31602 29.3485 8.25993C29.3485 7.20384 29.0593 6.35898 28.4804 5.72534C27.9164 5.07661 27.204 4.75224 26.3432 4.75224C25.4824 4.75224 24.7627 5.07661 24.184 5.72534C23.62 6.35898 23.3379 7.20384 23.3379 8.25993C23.3379 9.31602 23.62 10.1684 24.184 10.8171Z" fill="#FF5151"/>
<path d="M32.7988 10.7494H37.4736C37.4736 11.2322 37.6518 11.6169 38.008 11.9035C38.3642 12.1902 38.8911 12.3335 39.5885 12.3335C40.85 12.3335 41.4808 11.994 41.4808 11.3151C41.4808 11.0737 41.3695 10.8776 41.1468 10.7267C40.9241 10.5608 40.5161 10.4175 39.9225 10.2968L37.4736 9.84416C35.9599 9.55751 34.8543 9.04455 34.1566 8.30529C33.4741 7.56604 33.1328 6.49489 33.1328 5.09181C33.1328 3.62839 33.6819 2.41389 34.78 1.44834C35.8931 0.482778 37.4218 0 39.3658 0C41.4881 0 43.128 0.528039 44.2856 1.58412C45.4581 2.6402 46.0443 4.03572 46.0443 5.77072H41.3695C41.3695 5.30303 41.2062 4.92586 40.8796 4.63921C40.5532 4.33747 40.0858 4.18661 39.4773 4.18661C38.3642 4.18661 37.8076 4.48833 37.8076 5.09181C37.8076 5.60475 38.2899 5.94421 39.2546 6.11016L41.7035 6.56278C43.2764 6.84944 44.4117 7.36238 45.1094 8.10163C45.8069 8.84088 46.1556 9.91206 46.1556 11.3151C46.1556 12.854 45.5842 14.1062 44.4416 15.0717C43.3136 16.0373 41.6959 16.5201 39.5885 16.5201C37.4218 16.5201 35.7447 15.9996 34.5573 14.9586C33.3851 13.9025 32.7988 12.4994 32.7988 10.7494Z" fill="#FF5151"/>
<path d="M55.3837 9.61774H60.0587C59.7915 11.6243 58.9901 13.2612 57.6543 14.5285C56.3188 15.7807 54.6713 16.4068 52.7123 16.4068C50.516 16.4068 48.6829 15.6449 47.2137 14.1212C45.7593 12.5823 45.0322 10.6286 45.0322 8.25993C45.0322 5.89129 45.7593 3.94509 47.2137 2.42133C48.6829 0.882465 50.516 0.113037 52.7123 0.113037C54.6713 0.113037 56.3188 0.739142 57.6543 1.99135C58.9901 3.22846 59.7915 4.82767 60.0587 6.78896H55.3837C55.2057 6.1855 54.8866 5.69516 54.4265 5.31799C53.9814 4.94084 53.4098 4.75224 52.7123 4.75224C51.8515 4.75224 51.1318 5.07661 50.5529 5.72534C49.9891 6.35898 49.707 7.20384 49.707 8.25993C49.707 9.31602 49.9891 10.1684 50.5529 10.8171C51.1318 11.4508 51.8515 11.7676 52.7123 11.7676C53.4098 11.7676 53.9814 11.579 54.4265 11.2019C54.8866 10.8096 55.2057 10.2816 55.3837 9.61774Z" fill="#FF5151"/>
<path d="M72.2217 14.1212C70.7671 15.6449 68.9418 16.4068 66.7453 16.4068C64.5487 16.4068 62.7159 15.6449 61.2466 14.1212C59.7922 12.5823 59.0649 10.6286 59.0649 8.25993C59.0649 5.89129 59.7922 3.94509 61.2466 2.42133C62.7159 0.882465 64.5487 0.113037 66.7453 0.113037C68.9418 0.113037 70.7671 0.882465 72.2217 2.42133C73.6909 3.94509 74.4256 5.89129 74.4256 8.25993C74.4256 10.6286 73.6909 12.5823 72.2217 14.1212ZM64.5858 10.8171C65.1647 11.4508 65.8845 11.7676 66.7453 11.7676C67.6061 11.7676 68.3184 11.4508 68.8824 10.8171C69.4611 10.1684 69.7506 9.31602 69.7506 8.25993C69.7506 7.20384 69.4611 6.35898 68.8824 5.72534C68.3184 5.07661 67.6061 4.75224 66.7453 4.75224C65.8845 4.75224 65.1647 5.07661 64.5858 5.72534C64.0219 6.35898 63.74 7.20384 63.74 8.25993C63.74 9.31602 64.0219 10.1684 64.5858 10.8171Z" fill="#FF5151"/>
<path d="M76.5403 16.1805L72.7559 0.339355H77.7646L79.3231 7.35474H79.7683L81.4378 0.339355H86.1128L87.7823 7.35474H88.2277L89.786 0.339355H94.7948L91.0103 16.1805H85.7789L83.9979 8.82569H83.5527L81.7717 16.1805H76.5403Z" fill="#FF5151"/>
<path d="M10.4165 26.3641H15.0915C14.8243 28.3706 14.0229 30.0075 12.6872 31.2749C11.3515 32.527 9.70417 33.1532 7.74517 33.1532C5.54869 33.1532 3.71584 32.3912 2.24656 30.8675C0.792151 29.3286 0.0649414 27.3749 0.0649414 25.0062C0.0649414 22.6376 0.792151 20.6914 2.24656 19.1677C3.71584 17.6288 5.54869 16.8594 7.74517 16.8594C9.70417 16.8594 11.3515 17.4855 12.6872 18.7377C14.0229 19.9748 14.8243 21.574 15.0915 23.5353H10.4165C10.2385 22.9317 9.91938 22.4415 9.45931 22.0643C9.01408 21.6872 8.4427 21.4986 7.74517 21.4986C6.88439 21.4986 6.16459 21.8229 5.5858 22.4717C5.02183 23.1053 4.73985 23.9503 4.73985 25.0062C4.73985 26.0623 5.02183 26.9148 5.5858 27.5634C6.16459 28.1971 6.88439 28.5138 7.74517 28.5138C8.4427 28.5138 9.01408 28.3254 9.45931 27.9482C9.91938 27.5559 10.2385 27.0279 10.4165 26.3641Z" fill="#FF5151"/>
<path d="M14.6543 32.927V17.0859H19.3292V32.927H14.6543Z" fill="#FF5151"/>
<path d="M22.5638 32.927V21.7251H18.668V17.0859H31.1345V21.7251H27.2386V32.927H22.5638Z" fill="#FF5151"/>
<path d="M34.3535 32.927V28.1748L28.7881 17.0859H33.9083L36.4684 22.5172H36.9136L39.4737 17.0859H44.5939L39.0285 28.1748V32.927H34.3535Z" fill="#FF5151"/>
<path d="M0.621582 49.6732V33.832H5.2965V39.2635H9.52618V33.832H14.2011V49.6732H9.52618V44.1289H5.2965V49.6732H0.621582Z" fill="#59D9BA"/>
<path d="M12.8594 49.6732L17.8682 33.832H24.3241L29.3329 49.6732H24.3241L23.6562 47.2972H18.5361L17.8682 49.6732H12.8594ZM19.6491 43.2237H22.5432L21.3188 38.9239H20.8735L19.6491 43.2237Z" fill="#59D9BA"/>
<path d="M37.3512 43.1105H42.0262C41.759 45.117 40.9576 46.7539 39.6218 48.0211C38.2863 49.2734 36.6388 49.8996 34.6798 49.8996C32.4833 49.8996 30.6504 49.1376 29.1812 47.6139C27.7268 46.0749 26.9995 44.1213 26.9995 41.7525C26.9995 39.384 27.7268 37.4378 29.1812 35.9141C30.6504 34.3752 32.4833 33.6057 34.6798 33.6057C36.6388 33.6057 38.2863 34.2317 39.6218 35.484C40.9576 36.7211 41.759 38.3204 42.0262 40.2817H37.3512C37.1732 39.6781 36.8539 39.1878 36.394 38.8107C35.9486 38.4335 35.3773 38.2449 34.6798 38.2449C33.819 38.2449 33.0993 38.5693 32.5204 39.2179C31.9564 39.8516 31.6745 40.6964 31.6745 41.7525C31.6745 42.8087 31.9564 43.6611 32.5204 44.3098C33.0993 44.9435 33.819 45.2602 34.6798 45.2602C35.3773 45.2602 35.9486 45.0718 36.394 44.6946C36.8539 44.3023 37.1732 43.7743 37.3512 43.1105Z" fill="#59D9BA"/>
<path d="M41.5889 49.6732V33.832H46.2637V40.2818L49.6029 33.832H54.9456L50.716 41.6395L55.391 49.6732H50.0481L46.2637 42.8843V49.6732H41.5889Z" fill="#59D9BA"/>
</svg>
