<?xml version="1.0" encoding="utf-8"?>
<!-- Generator: Adobe Illustrator 24.0.0, SVG Export Plug-In . SVG Version: 6.00 Build 0)  -->
<svg version="1.1" id="Layer_1" xmlns="http://www.w3.org/2000/svg" xmlns:xlink="http://www.w3.org/1999/xlink" x="0px" y="0px"
	 viewBox="0 0 846 185.9" style="enable-background:new 0 0 846 185.9;" xml:space="preserve">
<g id="Layer_2_1_">
	<g id="Layer_1-2">
		<path d="M0,28.7h46.7c15.9,0,27.7,3.7,35.5,11.1s11.6,18.9,11.6,34.5v37.5c0,15.6-3.9,27-11.6,34.4s-19.5,11.1-35.5,11.1H0v-23.3
			h12.1V51.8H0V28.7z M46.7,134.1c8.4,0,14.4-2,17.7-6c3.4-4,5-10.2,5-18.7V74.2c0-7.3-1.7-12.9-5-16.7c-3.3-3.8-9.2-5.7-17.7-5.7
			H36.4v82.3H46.7z"/>
		<path d="M114.5,28.7h81.2v23.2h-57v29.4h54.8v23.2h-54.7v29.8h59.2v23.1h-83.4V28.7z"/>
		<path d="M209.3,28.7h25l25.2,116.5h3.3l25.2-116.5h25l-29,128.6h-45.6L209.3,28.7z"/>
		<path d="M327.9,28.7h24.3v52.5h41.5V28.7h24.3v128.6h-24.3v-52.9h-41.5v52.9h-24.3V28.7z"/>
		<path d="M501.9,144.1c-2.5,5.8-5.9,9.8-10.3,12.2c-4.8,2.5-10.1,3.7-15.4,3.6c-5.3,0-10.6-1-15.5-3.1c-4.9-2.1-9.2-5.2-12.8-9.2
			c-3.8-4.3-6.8-9.3-8.7-14.7c-2.2-6.3-3.3-13-3.2-19.7v-2.9c-0.1-6.6,1-13.2,3.1-19.5c1.9-5.4,4.7-10.4,8.5-14.7
			c6.9-8,17-12.6,27.6-12.5c6.5,0,11.7,1.1,15.7,3.3c4.1,2.4,7.4,6,9.5,10.3h3.3v-11h23.1v63.6c0,3.7,1.7,5.5,5,5.5h3.5v22.1h-15.8
			c-3.8,0.2-7.4-1.2-10.2-3.7c-2.6-2.5-4.1-5.9-4-9.6L501.9,144.1z M481.4,137.8c6.7,0,12.1-2.2,16.2-6.7c4-4.5,6.1-10.6,6.1-18.3
			v-2.2c0-7.7-2-13.8-6.1-18.3c-4-4.5-9.4-6.7-16.2-6.7c-6.7,0-12.1,2.2-16.2,6.7c-4,4.5-6.1,10.6-6.1,18.3v2.2
			c0,7.7,2,13.8,6.1,18.3C469.2,135.6,474.6,137.8,481.4,137.8z"/>
		<path d="M642.5,123.8c-2.1,10.8-7,19.5-14.8,26.1s-18.2,9.9-31.1,9.9c-6.4,0.1-12.8-1-18.8-3.1c-5.6-1.9-10.8-5-15.2-9
			c-4.4-4-7.8-9-10.1-14.5c-2.5-6.2-3.8-12.9-3.7-19.7v-2.2c-0.1-6.8,1.1-13.5,3.7-19.8c2.3-5.7,5.8-10.8,10.2-15.1
			c4.4-4.2,9.6-7.4,15.3-9.6c6-2.2,12.3-3.4,18.7-3.3c12.7,0,23.1,3.3,31,9.9c7.9,6.6,12.9,15.3,15,26.1l-22.8,5.9
			c-0.7-5.3-3.2-10.2-7-14c-3.9-3.9-9.4-5.9-16.5-5.9c-3.2,0-6.4,0.6-9.4,1.8c-2.9,1.2-5.5,3-7.7,5.2c-2.3,2.4-4.1,5.2-5.2,8.3
			c-1.3,3.5-2,7.2-1.9,10.9v1.1c-0.1,3.7,0.6,7.3,1.9,10.8c1.2,2.9,2.9,5.6,5.2,7.8c2.2,2.1,4.8,3.7,7.7,4.7c3,1.1,6.2,1.6,9.4,1.6
			c7.1,0,12.5-1.8,16.3-5.3s6.2-8.3,7.3-14.3L642.5,123.8z"/>
		<path d="M685.8,99.6h4.4l24.3-33.4h25.3v1.1L710.4,109v3.3l32.3,43.9v1.1h-26.5l-26.1-35.7h-4.4v35.7h-23.2V28.7h23.2V99.6z"/>
		<path d="M803,18.7c0-5.5,1.7-10,5.2-13.5c3.6-3.5,8.5-5.4,13.5-5.2H846v22h-14.9c-3.3,0-5,1.8-5,5.5V77c0.1,3.8-1.3,7.5-4,10.3
			c-2.8,2.7-6.5,4.2-10.4,4h-1.1v3.3h1.1c3.9-0.2,7.6,1.3,10.4,4c2.7,2.7,4.1,6.5,4,10.3v49.4c0,3.7,1.7,5.5,5,5.5H846v22.1h-24.3
			c-5.5,0-10-1.7-13.5-5.2c-3.5-3.5-5.2-8-5.2-13.4v-55.7c0-3.5-1.7-5.3-5-5.3h-11.6V79.7H798c3.3,0,5-1.8,5-5.3V18.7z"/>
	</g>
</g>
</svg>
