<svg width="324" height="373" viewBox="0 0 324 373" fill="none" xmlns="http://www.w3.org/2000/svg">
<path d="M182.415 138.668C179.746 137.115 176.397 139.045 176.403 142.133L176.588 235.242C176.594 238.317 179.924 240.236 182.588 238.698L268.782 188.933L200.815 149.377L182.415 138.668Z" fill="#2998FF"/>
<path d="M287.182 199.642C289.852 201.196 293.2 199.266 293.194 196.177L293.01 103.069C293.004 99.993 289.674 98.0747 287.01 99.6125L200.815 149.377L268.782 188.933L287.182 199.642Z" fill="#2998FF"/>
<path d="M121.011 128.189C121 131.278 124.346 133.213 127.018 131.663L207.56 84.9497C210.22 83.4066 210.217 79.5633 207.553 78.0255L121.358 28.261L121.085 106.9L121.011 128.189Z" fill="#2998FF"/>
<path d="M121.432 6.972C121.443 3.88311 118.097 1.94823 115.425 3.49798L34.8837 50.2117C32.2232 51.7548 32.227 55.5981 34.8906 57.136L121.085 106.9L121.358 28.261L121.432 6.972Z" fill="#2998FF"/>
<path d="M142.477 186.716C145.157 185.18 145.16 181.316 142.482 179.777L61.756 133.382C59.0894 131.85 55.7629 133.775 55.7629 136.85L55.7629 236.379L124.003 197.296L142.477 186.716Z" fill="#2998FF"/>
<path d="M37.2891 246.96C34.6086 248.495 34.6058 252.36 37.2839 253.899L118.01 300.293C120.677 301.826 124.003 299.901 124.003 296.825V197.296L55.7629 236.379L37.2891 246.96Z" fill="#2998FF"/>
<path d="M17.6363 373C12.2712 373 8.04762 371.658 4.96555 368.975C1.88349 366.292 0.247326 362.344 0.0570753 357.133C0.0190252 356.006 0 354.333 0 352.117C0 349.861 0.0190252 348.169 0.0570753 347.042C0.247326 341.908 1.90251 337.961 5.02263 335.2C8.18079 332.4 12.3853 331 17.6363 331C22.8872 331 27.0917 332.4 30.2499 335.2C33.4081 337.961 35.0633 341.908 35.2155 347.042C35.2916 349.297 35.3296 350.989 35.3296 352.117C35.3296 353.206 35.2916 354.878 35.2155 357.133C35.0252 362.344 33.3891 366.292 30.307 368.975C27.2249 371.658 23.0013 373 17.6363 373ZM17.6363 364.6C19.729 364.6 21.3842 363.958 22.6018 362.675C23.8575 361.392 24.5234 359.428 24.5995 356.783C24.6756 354.528 24.7136 352.933 24.7136 352C24.7136 350.989 24.6756 349.394 24.5995 347.217C24.5234 344.572 23.8575 342.608 22.6018 341.325C21.3462 340.042 19.691 339.4 17.6363 339.4C15.5816 339.4 13.9264 340.042 12.6707 341.325C11.4531 342.608 10.7872 344.572 10.6731 347.217C10.635 348.306 10.616 349.9 10.616 352C10.616 354.061 10.635 355.656 10.6731 356.783C10.7872 359.428 11.4531 361.392 12.6707 362.675C13.8883 363.958 15.5435 364.6 17.6363 364.6Z" fill="#242424"/>
<path d="M43.3723 372.417C42.9918 372.417 42.6494 372.281 42.345 372.008C42.0786 371.697 41.9454 371.347 41.9454 370.958V333.042C41.9454 332.614 42.0786 332.264 42.345 331.992C42.6494 331.719 42.9918 331.583 43.3723 331.583H58.8968C63.8814 331.583 67.7625 332.75 70.5402 335.083C73.3559 337.378 74.7637 340.644 74.7637 344.883C74.7637 347.606 74.1359 349.919 72.8803 351.825C71.6246 353.731 69.8933 355.189 67.6864 356.2L75.5057 370.55C75.6199 370.783 75.6769 370.997 75.6769 371.192C75.6769 371.503 75.5438 371.794 75.2774 372.067C75.0491 372.3 74.7828 372.417 74.4784 372.417H66.8874C65.7839 372.417 65.0039 371.892 64.5473 370.842L58.0407 358.008H52.219V370.958C52.219 371.386 52.0668 371.736 51.7624 372.008C51.496 372.281 51.1536 372.417 50.735 372.417H43.3723ZM58.7827 349.725C60.533 349.725 61.8647 349.297 62.7779 348.442C63.6911 347.547 64.1477 346.322 64.1477 344.767C64.1477 343.211 63.6911 341.986 62.7779 341.092C61.9028 340.158 60.571 339.692 58.7827 339.692H52.219V349.725H58.7827Z" fill="#242424"/>
<path d="M82.8345 372.417C82.454 372.417 82.1116 372.281 81.8072 372.008C81.5408 371.697 81.4077 371.347 81.4077 370.958V333.042C81.4077 332.614 81.5408 332.264 81.8072 331.992C82.1116 331.719 82.454 331.583 82.8345 331.583H90.4826C90.9012 331.583 91.2436 331.719 91.51 331.992C91.8144 332.264 91.9666 332.614 91.9666 333.042V370.958C91.9666 371.386 91.8144 371.736 91.51 372.008C91.2436 372.281 90.9012 372.417 90.4826 372.417H82.8345Z" fill="#242424"/>
<path d="M116.407 373C110.928 373 106.647 371.639 103.565 368.917C100.483 366.156 98.8471 362.247 98.6569 357.192C98.6188 356.064 98.5998 354.275 98.5998 351.825C98.5998 349.375 98.6188 347.586 98.6569 346.458C98.8471 341.519 100.502 337.708 103.622 335.025C106.781 332.342 111.042 331 116.407 331C120.022 331 123.161 331.603 125.825 332.808C128.526 334.014 130.581 335.55 131.989 337.417C133.435 339.283 134.196 341.208 134.272 343.192C134.272 343.542 134.139 343.833 133.872 344.067C133.644 344.3 133.359 344.417 133.016 344.417H124.683C124.303 344.417 123.998 344.358 123.77 344.242C123.542 344.125 123.351 343.911 123.199 343.6C122.705 342.472 121.925 341.5 120.859 340.683C119.794 339.828 118.31 339.4 116.407 339.4C111.879 339.4 109.501 341.85 109.273 346.75C109.235 347.839 109.216 349.531 109.216 351.825C109.216 354.081 109.235 355.772 109.273 356.9C109.501 362.033 111.936 364.6 116.579 364.6C118.824 364.6 120.612 364.017 121.944 362.85C123.313 361.644 123.998 359.817 123.998 357.367V356.258H118.633C118.215 356.258 117.872 356.122 117.606 355.85C117.34 355.539 117.206 355.169 117.206 354.742V350.425C117.206 349.997 117.34 349.647 117.606 349.375C117.872 349.064 118.215 348.908 118.633 348.908H133.016C133.435 348.908 133.777 349.064 134.044 349.375C134.31 349.647 134.443 349.997 134.443 350.425V357.075C134.443 360.381 133.701 363.239 132.217 365.65C130.733 368.022 128.621 369.85 125.882 371.133C123.18 372.378 120.022 373 116.407 373Z" fill="#242424"/>
<path d="M142.418 372.417C142.038 372.417 141.695 372.281 141.391 372.008C141.124 371.697 140.991 371.347 140.991 370.958V333.042C140.991 332.614 141.124 332.264 141.391 331.992C141.695 331.719 142.038 331.583 142.418 331.583H150.066C150.485 331.583 150.827 331.719 151.093 331.992C151.398 332.264 151.55 332.614 151.55 333.042V370.958C151.55 371.386 151.398 371.736 151.093 372.008C150.827 372.281 150.485 372.417 150.066 372.417H142.418Z" fill="#242424"/>
<path d="M160.923 372.417C160.542 372.417 160.2 372.281 159.896 372.008C159.629 371.697 159.496 371.347 159.496 370.958V333.042C159.496 332.614 159.629 332.264 159.896 331.992C160.2 331.719 160.542 331.583 160.923 331.583H166.973C167.924 331.583 168.571 331.953 168.913 332.692L182.84 355.092V333.042C182.84 332.614 182.973 332.264 183.239 331.992C183.544 331.719 183.886 331.583 184.267 331.583H191.116C191.534 331.583 191.877 331.719 192.143 331.992C192.409 332.264 192.543 332.614 192.543 333.042V370.9C192.543 371.328 192.409 371.697 192.143 372.008C191.877 372.281 191.534 372.417 191.116 372.417H185.009C184.172 372.417 183.544 372.047 183.125 371.308L169.199 349.725V370.958C169.199 371.347 169.066 371.697 168.799 372.008C168.533 372.281 168.191 372.417 167.772 372.417H160.923Z" fill="#242424"/>
<path d="M214.097 372.417C213.716 372.417 213.374 372.281 213.069 372.008C212.803 371.697 212.67 371.347 212.67 370.958V333.042C212.67 332.614 212.803 332.264 213.069 331.992C213.374 331.719 213.716 331.583 214.097 331.583H228.936C234.53 331.583 238.867 332.944 241.949 335.667C245.031 338.389 246.649 342.336 246.801 347.508C246.839 348.636 246.858 350.133 246.858 352C246.858 353.867 246.839 355.344 246.801 356.433C246.611 361.839 245.031 365.864 242.063 368.508C239.134 371.114 234.853 372.417 229.222 372.417H214.097ZM228.936 364.017C231.447 364.017 233.293 363.414 234.472 362.208C235.652 360.964 236.28 359 236.356 356.317C236.432 355.189 236.47 353.731 236.47 351.942C236.47 350.153 236.432 348.714 236.356 347.625C236.28 345.019 235.595 343.094 234.301 341.85C233.046 340.606 231.162 339.983 228.651 339.983H222.943V364.017H228.936Z" fill="#242424"/>
<path d="M254.952 372.417C254.572 372.417 254.229 372.281 253.925 372.008C253.659 371.697 253.525 371.347 253.525 370.958V333.042C253.525 332.614 253.659 332.264 253.925 331.992C254.229 331.719 254.572 331.583 254.952 331.583H281.606C282.025 331.583 282.367 331.719 282.634 331.992C282.9 332.264 283.033 332.614 283.033 333.042V338.525C283.033 338.914 282.9 339.264 282.634 339.575C282.367 339.847 282.025 339.983 281.606 339.983H263.399V347.858H280.351C280.769 347.858 281.112 348.014 281.378 348.325C281.644 348.597 281.778 348.947 281.778 349.375V354.45C281.778 354.839 281.644 355.189 281.378 355.5C281.112 355.772 280.769 355.908 280.351 355.908H263.399V364.017H282.063C282.482 364.017 282.824 364.153 283.09 364.425C283.357 364.697 283.49 365.047 283.49 365.475V370.958C283.49 371.347 283.357 371.697 283.09 372.008C282.824 372.281 282.482 372.417 282.063 372.417H254.952Z" fill="#242424"/>
<path d="M301.17 372.417C299.952 372.417 299.172 371.833 298.83 370.667L287.186 333.333L287.072 332.808C287.072 332.497 287.186 332.225 287.415 331.992C287.681 331.719 287.986 331.583 288.328 331.583H295.405C295.938 331.583 296.376 331.739 296.718 332.05C297.099 332.361 297.346 332.711 297.46 333.1L305.565 360.05L313.612 333.1C313.726 332.711 313.955 332.361 314.297 332.05C314.678 331.739 315.134 331.583 315.667 331.583H322.801C323.106 331.583 323.372 331.719 323.6 331.992C323.867 332.225 324 332.497 324 332.808L323.886 333.333L312.242 370.667C311.9 371.833 311.12 372.417 309.902 372.417H301.17Z" fill="#242424"/>
</svg>
