<svg width="563" height="646" viewBox="0 0 563 646" fill="none" xmlns="http://www.w3.org/2000/svg">
<path d="M386.187 175.368L199.556 283.656C196.907 285.192 193.591 283.274 193.602 280.211L193.788 226.477L1.98239 115.695C-0.657775 114.17 -0.661548 110.359 1.97559 108.829L188.607 0.541328C191.256 -0.995374 194.572 0.923235 194.561 3.98612L194.374 57.7199L386.181 168.502C388.821 170.027 388.824 173.838 386.187 175.368Z" fill="#2998FF"/>
<path d="M312.864 509.872L312.437 294.038C312.431 290.975 315.75 289.061 318.396 290.602L364.82 317.63L556.626 206.848C559.266 205.323 562.567 207.225 562.573 210.275L563 426.109C563.006 429.172 559.687 431.086 557.041 429.545L510.618 402.517L318.812 513.299C316.171 514.824 312.87 512.922 312.864 509.872Z" fill="#2998FF"/>
<path d="M59.6039 279.33L246.663 386.877C249.317 388.403 249.314 392.235 246.658 393.758L200.048 420.463V642.028C200.048 645.078 196.75 646.986 194.107 645.467L7.04834 537.92C4.3938 536.393 4.39667 532.561 7.05349 531.039L53.6635 504.334L53.6635 282.769C53.6635 279.719 56.9607 277.81 59.6039 279.33Z" fill="#2998FF"/>
</svg>
