<svg width="56" height="64" viewBox="0 0 56 64" fill="none" xmlns="http://www.w3.org/2000/svg">
<path d="M31.67 28.7903C31.4067 28.6376 31.0766 28.8272 31.0772 29.1307L31.1197 50.5136C31.1203 50.8158 31.4487 51.0042 31.7113 50.8532L50.7897 39.8778L36.2876 31.468L31.67 28.7903Z" fill="#2998FF"/>
<path d="M55.4073 42.5556C55.6705 42.7082 56.0006 42.5186 56 42.2152L55.9575 20.8322C55.9569 20.53 55.6286 20.3416 55.3659 20.4927L36.2876 31.468L50.7897 39.8778L55.4073 42.5556Z" fill="#2998FF"/>
<path d="M19.257 27.7608C19.256 28.0643 19.5858 28.2544 19.8492 28.1021L38.4129 17.374C38.6753 17.2224 38.6749 16.8448 38.4123 16.6937L19.3339 5.71838L19.2756 22.4374L19.257 27.7608Z" fill="#2998FF"/>
<path d="M19.3524 0.39491C19.3535 0.091466 19.0237 -0.0986129 18.7602 0.0536301L0.196507 10.7818C-0.0658023 10.9334 -0.065427 11.3109 0.197183 11.462L19.2756 22.4374L19.3339 5.71838L19.3524 0.39491Z" fill="#2998FF"/>
<path d="M24.5343 39.01C24.7986 38.8592 24.7989 38.4796 24.5348 38.3284L5.92863 27.6736C5.66572 27.523 5.33775 27.7121 5.33775 28.0142L5.33776 49.9649L19.8982 41.6558L24.5343 39.01Z" fill="#2998FF"/>
<path d="M0.70159 52.6107C0.437324 52.7615 0.437039 53.1411 0.701079 53.2923L19.3073 63.9472C19.5702 64.0977 19.8982 63.9086 19.8982 63.6065V41.6558L5.33776 49.9649L0.70159 52.6107Z" fill="#2998FF"/>
</svg>
