<svg xmlns="http://www.w3.org/2000/svg">
  <symbol id="logo">
    <g>
      <path d="M386.187 175.368L199.556 283.656C196.907 285.192 193.591 283.274 193.602 280.211L193.788 226.477L1.98239 115.695C-0.657775 114.17 -0.661548 110.359 1.97559 108.829L188.607 0.541328C191.256 -0.995374 194.572 0.923235 194.561 3.98612L194.374 57.7199L386.181 168.502C388.821 170.027 388.824 173.838 386.187 175.368Z"/>
      <path d="M312.864 509.872L312.437 294.038C312.431 290.975 315.75 289.061 318.396 290.602L364.82 317.63L556.626 206.848C559.266 205.323 562.567 207.225 562.573 210.275L563 426.109C563.006 429.172 559.687 431.086 557.041 429.545L510.618 402.517L318.812 513.299C316.171 514.824 312.87 512.922 312.864 509.872Z"/>
      <path d="M59.6039 279.33L246.663 386.877C249.317 388.403 249.314 392.235 246.658 393.758L200.048 420.463V642.028C200.048 645.078 196.75 646.986 194.107 645.467L7.04834 537.92C4.3938 536.393 4.39667 532.561 7.05349 531.039L53.6635 504.334L53.6635 282.769C53.6635 279.719 56.9607 277.81 59.6039 279.33Z"/>
    </g>
  </symbol>
  <symbol id="what-we-do__mobile">
    <g>
      <path d="M25.3334 1.33331H12.0001C10.5334 1.33331 9.33342 2.53331 9.33342 3.99998V7.99998H12.0001V5.33331H25.3334V26.6666H12.0001V24H9.33342V28C9.33342 29.4666 10.5334 30.6666 12.0001 30.6666H25.3334C26.8001 30.6666 28.0001 29.4666 28.0001 28V3.99998C28.0001 2.53331 26.8001 1.33331 25.3334 1.33331ZM9.34675 17.96L5.94675 14.56L4.25342 16.2533L9.33342 21.3333L18.9201 11.7466L17.2268 10.0533L9.34675 17.96Z" fill="#2998FF"/>
    </g>
  </symbol>
  <symbol id="what-we-do__web">
    <g>
      <path d="M26.6665 5.33331H5.33317C3.8665 5.33331 2.67984 6.53331 2.67984 7.99998L2.6665 24C2.6665 25.4666 3.8665 26.6666 5.33317 26.6666H26.6665C28.1332 26.6666 29.3332 25.4666 29.3332 24V7.99998C29.3332 6.53331 28.1332 5.33331 26.6665 5.33331ZM19.9998 24H5.33317V18.6666H19.9998V24ZM19.9998 17.3333H5.33317V12H19.9998V17.3333ZM26.6665 24H21.3332V12H26.6665V24Z" fill="#2998FF"/>
    </g>
  </symbol>
  <symbol id="what-we-do__blockchain">
    <g>
      <path d="M27.9929 9.50755C27.9911 9.49741 27.9915 9.4867 27.9888 9.47674C27.9813 9.44935 27.9702 9.42302 27.9558 9.3984C27.9509 9.38995 27.9436 9.38318 27.9378 9.37529C27.9274 9.35943 27.9156 9.34447 27.9026 9.33058C27.8947 9.32269 27.8846 9.31724 27.8759 9.3101C27.863 9.29854 27.8492 9.28798 27.8346 9.27854L27.8321 9.2776L27.83 9.2761L25.0047 7.70235C24.9536 7.67386 24.8956 7.65887 24.8366 7.65887C24.7776 7.65887 24.7197 7.67386 24.6685 7.70235L21.8417 9.27591L21.8396 9.27741L21.8371 9.27835C21.8224 9.28785 21.8085 9.29847 21.7956 9.3101C21.7869 9.31705 21.7762 9.32269 21.7691 9.33039C21.7559 9.34445 21.744 9.3596 21.7335 9.37567C21.7279 9.38356 21.7208 9.39013 21.716 9.3984C21.7015 9.42302 21.6904 9.44935 21.6829 9.47674C21.6802 9.48632 21.6806 9.49665 21.6789 9.50642C21.6748 9.52441 21.6723 9.5427 21.6715 9.56109V10.2308L19.1574 8.7001C19.161 8.68365 19.1634 8.66694 19.1643 8.65013V5.90241C19.1634 5.88433 19.161 5.86636 19.157 5.84868C19.1553 5.83853 19.1556 5.82783 19.1529 5.81787C19.1454 5.79054 19.1343 5.76428 19.1199 5.73972C19.1131 5.72995 19.1058 5.72055 19.0981 5.71154C19.0888 5.69757 19.0784 5.68432 19.067 5.6719C19.0568 5.66315 19.0461 5.65499 19.0349 5.64747C19.0234 5.63746 19.0113 5.62823 18.9986 5.61986H18.9966L18.9953 5.61704L16.1683 4.04348C16.1171 4.01499 16.0592 4 16.0002 4C15.9412 4 15.8833 4.01499 15.8321 4.04348L13.0051 5.61704L13.0028 5.61873H13.0009C12.988 5.62716 12.9758 5.63645 12.9643 5.64653C12.9532 5.654 12.9426 5.66209 12.9325 5.67077C12.9209 5.68336 12.9104 5.6968 12.901 5.71097C12.8933 5.71981 12.8862 5.72903 12.8795 5.73859C12.8651 5.76321 12.854 5.78954 12.8465 5.81693C12.8438 5.82651 12.8442 5.83684 12.8424 5.84661C12.8384 5.8646 12.8359 5.88289 12.8351 5.90128V8.65013C12.836 8.667 12.8384 8.68377 12.842 8.70029L10.3285 10.2308V9.56128C10.3276 9.5432 10.3251 9.52523 10.3211 9.50755C10.3194 9.49741 10.3198 9.4867 10.3171 9.47674C10.3096 9.44935 10.2985 9.42302 10.284 9.3984C10.2792 9.38995 10.2719 9.38318 10.2661 9.37529C10.2557 9.35943 10.2439 9.34447 10.2309 9.33058C10.223 9.32269 10.2129 9.31724 10.2042 9.3101C10.1913 9.29854 10.1775 9.28798 10.1629 9.27854L10.1604 9.2776L10.1583 9.2761L7.33265 7.70235C7.28146 7.67386 7.22351 7.65887 7.16454 7.65887C7.10556 7.65887 7.04761 7.67386 6.99643 7.70235L4.17024 9.27591L4.16811 9.27741L4.1656 9.27835C4.15091 9.28785 4.13702 9.29847 4.12405 9.3101C4.11536 9.31705 4.10473 9.32269 4.09758 9.33039C4.08439 9.34445 4.0725 9.3596 4.06203 9.37567C4.05642 9.38356 4.04927 9.39013 4.04444 9.3984C4.03001 9.42302 4.0189 9.44935 4.0114 9.47674C4.0087 9.48632 4.00908 9.49665 4.00734 9.50642C4.0033 9.52441 4.00084 9.5427 4 9.56109V12.3088C3.99999 12.3678 4.01633 12.4258 4.04731 12.4766C4.07828 12.5273 4.12275 12.5691 4.17603 12.5974L6.82619 14.0043V17.7688L4.17024 19.2476L4.16811 19.2491L4.1656 19.2501C4.15091 19.2596 4.13702 19.2702 4.12405 19.2818C4.11536 19.2888 4.10473 19.2944 4.09758 19.3021C4.08439 19.3162 4.0725 19.3313 4.06203 19.3474C4.05642 19.3553 4.04927 19.3619 4.04444 19.3701C4.03001 19.3947 4.0189 19.4211 4.0114 19.4485C4.0087 19.458 4.00908 19.4684 4.00734 19.4781C4.0033 19.4961 4.00084 19.5144 4 19.5328V22.2805C4.00003 22.3396 4.01643 22.3976 4.04747 22.4484C4.07852 22.4991 4.12306 22.5408 4.17642 22.5691L7.00242 24.0688C7.0183 24.0764 7.03478 24.0826 7.05169 24.0876C7.06077 24.0908 7.06927 24.0955 7.07855 24.0978C7.13479 24.1126 7.19409 24.1126 7.25033 24.0978C7.25961 24.0953 7.26811 24.0906 7.27719 24.0876C7.2941 24.0826 7.31058 24.0764 7.32646 24.0688L9.726 22.7953L12.837 24.809V26.1716C12.837 26.2306 12.8533 26.2886 12.8843 26.3394C12.9153 26.3901 12.9598 26.4319 13.013 26.4602L15.839 27.9599C15.8549 27.9674 15.8714 27.9737 15.8883 27.9787C15.8974 27.9819 15.9059 27.9866 15.9152 27.9888C15.9714 28.0037 16.0307 28.0037 16.087 27.9888C16.0962 27.9864 16.1047 27.9817 16.1138 27.9787C16.1307 27.9737 16.1472 27.9674 16.1631 27.9599L18.9883 26.4598C19.0416 26.4315 19.0861 26.3898 19.117 26.339C19.148 26.2882 19.1644 26.2303 19.1643 26.1712V24.8086L22.2754 22.7949L24.6749 24.0685C24.6908 24.076 24.7073 24.0823 24.7242 24.0872C24.7332 24.0904 24.7417 24.0951 24.751 24.0974C24.8073 24.1123 24.8666 24.1123 24.9228 24.0974C24.9321 24.0949 24.9406 24.0902 24.9497 24.0872C24.9666 24.0823 24.9831 24.076 24.9989 24.0685L27.824 22.5691C27.8773 22.5408 27.9217 22.4991 27.9527 22.4483C27.9837 22.3975 28 22.3396 28 22.2805V19.533C27.9991 19.5149 27.9966 19.4969 27.9927 19.4793C27.9909 19.4691 27.9913 19.4584 27.9886 19.4485C27.9811 19.4211 27.97 19.3947 27.9556 19.3701C27.9507 19.3617 27.9434 19.3549 27.9376 19.347C27.9272 19.3312 27.9154 19.3162 27.9024 19.3023C27.8945 19.2944 27.8844 19.289 27.8758 19.2818C27.8628 19.2703 27.849 19.2597 27.8344 19.2503L27.8319 19.2493L27.8298 19.2478L25.1738 17.7689V14.0043L27.8238 12.5979C27.8771 12.5696 27.9215 12.5279 27.9525 12.4771C27.9835 12.4264 27.9998 12.3684 27.9998 12.3094V9.56128C27.999 9.54321 27.9967 9.52524 27.9929 9.50755V9.50755ZM18.0469 23.4632L16.0002 24.5494L13.9535 23.4632L13.8669 23.4171L16.0002 22.2294L18.1335 23.4164L18.0469 23.4632ZM9.65219 12.1138L7.5025 13.2545V11.2562L9.65219 10.1155V12.1138ZM7.16434 18.3382L9.29761 19.5259L9.21104 19.5719L7.16434 20.6581L5.11765 19.5719L5.03108 19.5259L7.16434 18.3382ZM9.96193 19.1381L7.5025 17.7686V14.0043L9.74281 12.8153L12.836 14.7721V17.1708L9.96193 19.1381ZM13.5124 8.45494V6.45661L15.662 7.59808V9.59585L13.5124 8.45494ZM18.488 8.45494L16.3383 9.59585V7.59808L18.488 6.45699V8.45494ZM16.0002 13.399L18.1335 14.5867L18.0469 14.6327L16.0002 15.719L13.9535 14.6327L13.8669 14.5867L16.0002 13.399ZM13.5124 15.1478L15.662 16.2887V18.2876L13.5124 17.1464V15.1478ZM16.3383 16.2887L18.488 15.1478V17.1464L16.3383 18.2876V16.2887ZM19.1643 14.7721L22.2576 12.8147L24.4979 14.0043V17.7688L22.0385 19.1383L19.1643 17.1708V14.7721ZM24.4975 11.2562V13.2545L22.3482 12.1138V10.1155L24.4975 11.2562ZM22.3482 22.0855V20.087L24.4979 21.2279V23.2263L22.3482 22.0855ZM26.8827 19.5719L24.836 20.6581L22.7892 19.5719L22.7026 19.5259L24.8359 18.3382L26.9691 19.5259L26.8827 19.5719ZM24.836 8.36645L26.9693 9.55414L26.8827 9.60017L24.836 10.6864L22.7892 9.60017L22.7026 9.55414L24.836 8.36645ZM21.6837 12.3932L18.815 14.2085L16.3383 12.8296V10.3451L18.6069 9.14084L21.6717 11.0067V12.3086C21.6719 12.3372 21.6759 12.3656 21.6837 12.3932V12.3932ZM16.0002 4.70777L18.1333 5.89564L16.0937 6.97813L16.0002 7.02772L15.9067 6.97813L13.8671 5.89546L16.0002 4.70777ZM13.3935 9.1414L15.662 10.3456V12.8296L13.1854 14.2085L10.3167 12.3932C10.3244 12.3656 10.3284 12.3372 10.3285 12.3086V11.0067L13.3935 9.1414ZM7.16434 8.36645L9.29761 9.55414L9.21104 9.60017L7.16434 10.6864L5.11765 9.60017L5.03108 9.55414L7.16434 8.36645ZM4.67689 10.1155L6.82658 11.2564V13.2545L4.67689 12.1138V10.1155ZM4.67689 20.0872L6.82658 21.2281V23.2264L4.67689 22.0855V20.0872ZM7.50288 21.2281L9.65257 20.0872V22.0855L7.50288 23.2263V21.2281ZM10.3097 22.3831C10.3218 22.3501 10.3284 22.3154 10.3291 22.2803V19.6916L13.1968 17.728L15.662 19.0363V21.66L13.0051 23.1389L13.003 23.1404L13.0005 23.1413C12.9858 23.1508 12.9719 23.1615 12.9589 23.1731C12.9502 23.18 12.9396 23.1857 12.9325 23.1934C12.9193 23.2074 12.9074 23.2226 12.8969 23.2387C12.8913 23.2465 12.8842 23.2531 12.8793 23.2614C12.8649 23.286 12.8538 23.3123 12.8463 23.3397C12.8436 23.3493 12.844 23.3596 12.8422 23.3694C12.8382 23.3874 12.8357 23.4057 12.8349 23.4241V24.0189L10.3097 22.3831ZM13.5124 24.6313V23.9781L15.662 25.119V27.1173L13.5124 25.9766V24.6313ZM16.3383 27.1173V25.1192L18.488 23.9783V25.9768L16.3383 27.1173ZM19.1643 23.4241C19.1634 23.406 19.161 23.388 19.157 23.3703C19.1553 23.3602 19.1556 23.3495 19.1529 23.3395C19.1454 23.3121 19.1343 23.2858 19.1199 23.2612C19.1151 23.2527 19.1077 23.246 19.1019 23.2381C19.0916 23.2222 19.0798 23.2073 19.0668 23.1934C19.0588 23.1855 19.0488 23.18 19.0401 23.1729C19.0272 23.1613 19.0134 23.1508 18.9987 23.1413L18.9962 23.1404L18.9941 23.1389L16.3383 21.66V19.0363L18.8036 17.728L21.6719 19.6916V22.2805C21.6726 22.3156 21.6791 22.3503 21.6912 22.3833L19.1649 24.019L19.1643 23.4241ZM25.1738 23.2261V21.2279L27.3235 20.087V22.0855L25.1738 23.2261ZM25.1738 13.2543V11.2562L27.3235 10.1155V12.1138L25.1738 13.2543Z" fill="#2998FF" stroke="#2998FF"/>
    </g>
  </symbol>
  <symbol id="what-we-do__machine-learning">
    <g>
      <path d="M28 18.2442C28 16.8643 27.2559 15.6113 26.0196 14.8475C27.5299 13.1887 26.9992 10.5836 24.9531 9.49971C25.4242 7.5109 23.3562 5.66877 21.1478 6.10685C20.7005 3.87379 17.4391 3.22958 15.994 5.08494C14.5479 3.22864 11.2868 3.87515 10.8402 6.10685C8.63146 5.66872 6.56376 7.51113 7.03486 9.49966C6.86391 9.59301 6.70042 9.69795 6.54611 9.81348C6.32463 9.97931 6.29466 10.2751 6.47924 10.4742C6.66377 10.6732 6.99295 10.7001 7.21443 10.5342C7.38502 10.4065 7.57049 10.2964 7.76702 10.206H8.9894L9.62269 11.1917C8.75799 12.0861 9.4818 13.5178 10.8126 13.5129C11.4931 13.5129 12.0737 13.1208 12.2891 12.5747H15.472V19.223H13.8746L13.2412 18.2373C14.1918 17.2367 13.2163 15.703 11.7651 15.9396L10.9816 14.7201C10.8883 14.575 10.716 14.4856 10.5295 14.4856H7.00443C6.79887 14.2994 6.62551 14.0886 6.48791 13.8567C6.35229 13.6281 6.03612 13.5416 5.78169 13.6636C5.52732 13.7855 5.43112 14.0696 5.56678 14.2982C5.68225 14.4928 5.8163 14.6764 5.96784 14.8477C3.1258 16.5599 3.41707 20.5537 6.48671 21.919C6.39525 22.8805 6.74353 23.8492 7.44354 24.5796C7.98621 25.1477 8.71013 25.5498 9.50937 25.7322C10.4087 28.3845 14.4176 28.8159 15.9939 26.4643C17.5713 28.8171 21.5801 28.3831 22.4785 25.7322C23.2778 25.5497 24.0017 25.1477 24.5443 24.5796C25.2443 23.8493 25.5927 22.8805 25.5012 21.919C27.0318 21.2168 28 19.8115 28 18.2442ZM24.9833 14.4856H23.0245C22.838 14.4856 22.6657 14.575 22.5725 14.7201L21.789 15.9397C21.0334 15.8052 20.263 16.2257 20.0261 16.8543H16.5159V15.4463H17.8632C18.0497 15.4463 18.222 15.3569 18.3152 15.2118L19.2377 13.776C19.3309 13.6309 19.3309 13.452 19.2377 13.3069L18.3152 11.8712C18.222 11.726 18.0497 11.6366 17.8632 11.6366H16.5159V7.91736H17.8588L18.4921 8.90307C17.5416 9.90355 18.5171 11.4372 19.9683 11.2006L20.7518 12.4202C20.8451 12.5654 21.0174 12.6548 21.2039 12.6548H25.8486C25.8319 13.3425 25.5206 13.9984 24.9833 14.4856ZM22.0247 17.3234C22.0247 17.582 21.7906 17.7925 21.5027 17.7925C20.8103 17.7667 20.8105 16.8799 21.5027 16.8543C21.7906 16.8543 22.0247 17.0647 22.0247 17.3234ZM16.5159 12.5748H17.5618L18.1829 13.5415L17.5618 14.5081H16.5159V12.5748ZM19.6821 10.286C19.3943 10.286 19.1601 10.0756 19.1601 9.81695C19.1888 9.19466 20.1755 9.1948 20.2041 9.81695C20.204 10.0756 19.9699 10.286 19.6821 10.286ZM18.3325 4.9314C19.3341 4.9314 20.1491 5.6637 20.1491 6.56384V6.73872C20.1491 6.89868 20.2398 7.04767 20.3898 7.13389C20.5397 7.2201 20.7282 7.23164 20.8899 7.16461C22.6165 6.44582 24.4805 7.96925 23.8488 9.58208C23.7602 9.80968 23.8781 10.0606 24.1213 10.1623C24.8641 10.4728 25.4208 11.042 25.683 11.7166H21.5053L20.872 10.7309C21.8225 9.73041 20.847 8.19671 19.3959 8.43332L18.6124 7.21377C18.5191 7.06863 18.3468 6.97923 18.1603 6.97923H16.516V6.56389C16.5159 5.6637 17.3308 4.9314 18.3325 4.9314ZM8.0488 9.26784C7.7428 7.73845 9.53526 6.50324 11.0981 7.16456C11.2597 7.23169 11.4482 7.22001 11.5982 7.13384C11.7481 7.04762 11.8389 6.89864 11.8389 6.73867V6.5638C11.9389 4.39762 15.3728 4.39931 15.472 6.5638V8.25347H14.6642C14.0592 6.78446 11.655 7.13628 11.6216 8.72256C11.6551 10.3091 14.0595 10.6604 14.6642 9.19165H15.472V11.6366H12.2891C12.0524 11.0079 11.2818 10.5874 10.5263 10.722L9.74275 9.50238C9.64952 9.35724 9.47721 9.26784 9.2907 9.26784H8.0488ZM13.7096 8.72256C13.7096 8.98122 13.4754 9.19165 13.1876 9.19165C12.4951 9.1659 12.4953 8.27913 13.1876 8.25347C13.4754 8.25347 13.7096 8.46395 13.7096 8.72256ZM10.8125 12.5748C10.5247 12.5748 10.2905 12.3644 10.2905 12.1057C10.3191 11.4834 11.3059 11.4836 11.3345 12.1057C11.3345 12.3643 11.1003 12.5748 10.8125 12.5748ZM12.5733 17.3234C12.5733 17.582 12.3391 17.7925 12.0513 17.7925C11.3588 17.7667 11.359 16.8799 12.0513 16.8543C12.3391 16.8543 12.5733 17.0647 12.5733 17.3234ZM12.935 27.0725C11.7289 27.0725 10.6827 26.3025 10.4472 25.2415C10.4047 25.0496 10.234 24.9016 10.0191 24.8702C8.52513 24.6556 7.45137 23.466 7.51944 22.1061H11.0081L11.6415 23.0919C11.4071 23.3379 11.2654 23.6573 11.2654 24.0058C11.3514 25.8726 14.3116 25.8723 14.3974 24.0058C14.4076 23.137 13.4923 22.4556 12.5452 22.6221L11.7616 21.4025C11.6684 21.2574 11.4961 21.168 11.3095 21.168H7.16035C6.02526 20.7227 5.24607 19.7947 5.06984 18.7133H6.16547C6.77047 20.1823 9.17471 19.8305 9.20801 18.2442C9.17455 16.6577 6.77016 16.3063 6.16547 17.7751H5.06958C5.23171 16.7743 5.90859 15.9051 6.92201 15.4238H10.228L10.8613 16.4095C9.91084 17.41 10.8863 18.9436 12.3374 18.7071L13.1209 19.9267C13.2142 20.0718 13.3865 20.1612 13.573 20.1612H15.4718V24.7927C15.4719 26.0498 14.3339 27.0725 12.935 27.0725ZM12.8314 23.5367C13.1192 23.5367 13.3534 23.7471 13.3534 24.0058C13.3247 24.6281 12.3379 24.6279 12.3094 24.0058C12.3094 23.7471 12.5436 23.5367 12.8314 23.5367ZM7.12 18.2442C7.12 17.9855 7.35417 17.7751 7.64201 17.7751C8.33449 17.8009 8.33428 18.6876 7.64201 18.7133C7.35417 18.7133 7.12 18.5029 7.12 18.2442ZM19.0529 27.0725C17.654 27.0725 16.5159 26.0498 16.5159 24.7927V21.5679H17.7202C18.0004 22.3299 19.0519 22.7391 19.8715 22.3686L21.5305 23.8595V25.2845C21.2767 26.3232 20.2426 27.0725 19.0529 27.0725ZM19.1967 21.5679C18.9089 21.5679 18.6747 21.3575 18.6747 21.0988C18.7033 20.4765 19.6901 20.4767 19.7187 21.0988C19.7187 21.3575 19.4846 21.5679 19.1967 21.5679ZM22.5745 24.7225V23.6652C22.5745 23.5408 22.5195 23.4215 22.4216 23.3335L20.6097 21.7052C21.112 20.7948 20.3324 19.6783 19.1966 19.6915C18.5161 19.6915 17.9355 20.0837 17.7201 20.6297H16.5159V17.7925H20.0261C20.2416 18.3385 20.8222 18.7307 21.5027 18.7307C22.8337 18.7355 23.5571 17.3034 22.6926 16.4094L23.3259 15.4237H25.0658C26.4669 16.0714 27.219 17.5409 26.8757 18.9235H23.2782C22.9899 18.9235 22.7562 19.1336 22.7562 19.3926V20.7786C22.7562 20.9462 22.8557 21.1011 23.0172 21.1849L24.4535 21.9301C24.6084 23.1429 23.8047 24.3042 22.5745 24.7225ZM24.9637 21.1115L23.8003 20.5079V19.8618H26.4694C26.1224 20.3932 25.6045 20.8312 24.9637 21.1115Z" fill="#2998FF" stroke="#2998FF"/>
    </g>
  </symbol>
  <symbol id="what-we-do__design">
    <g>
      <path d="M21.6533 15.3466L23.7467 13.2533L18.7467 8.25327L16.6533 10.3466L11.1333 4.83994C10.0933 3.79994 8.4 3.79994 7.36 4.83994L4.82667 7.37327C3.78667 8.41327 3.78667 10.1066 4.82667 11.1466L10.3333 16.6533L4 22.9999V27.9999H9L15.3467 21.6533L20.8533 27.1599C22.12 28.4266 23.8267 27.9599 24.6267 27.1599L27.16 24.6266C28.2 23.5866 28.2 21.8933 27.16 20.8533L21.6533 15.3466ZM12.24 14.7599L6.72 9.25327L9.24 6.71994L10.9333 8.41327L9.36 9.99994L11.24 11.8799L12.8267 10.2933L14.76 12.2266L12.24 14.7599ZM22.7467 25.2799L17.24 19.7733L19.7733 17.2399L21.7067 19.1733L20.12 20.7599L22 22.6399L23.5867 21.0533L25.28 22.7466L22.7467 25.2799Z" fill="#2998FF"/>
      <path d="M27.6133 9.38665C28.1333 8.86665 28.1333 8.02665 27.6133 7.50665L24.4933 4.38665C23.8667 3.75999 23 3.99999 22.6133 4.38665L20.1733 6.82665L25.1733 11.8267L27.6133 9.38665Z" fill="#2998FF"/>
    </g>
  </symbol>
  <symbol id="what-we-do__ux">
    <g>
      <path d="M9.25462 22.75C7.59527 22.75 6.30466 22.337 5.3828 21.5109C4.46093 20.6849 4 19.4338 4 17.7577V10.4489C4 10.3173 4.03687 10.2095 4.11062 10.1257C4.19666 10.0419 4.30729 10 4.44249 10H6.12029C6.25549 10 6.35997 10.0419 6.43372 10.1257C6.51976 10.2095 6.56278 10.3173 6.56278 10.4489V17.7577C6.56278 18.7155 6.79632 19.4398 7.2634 19.9306C7.73047 20.4095 8.39422 20.6489 9.25462 20.6489C10.115 20.6489 10.7726 20.4095 11.2274 19.9306C11.6945 19.4398 11.928 18.7155 11.928 17.7577V10.4489C11.928 10.3173 11.971 10.2095 12.0571 10.1257C12.1431 10.0419 12.2538 10 12.389 10H14.0483C14.1835 10 14.288 10.0419 14.3617 10.1257C14.4478 10.2095 14.4908 10.3173 14.4908 10.4489V17.7577C14.4908 19.4338 14.0299 20.6849 13.108 21.5109C12.1984 22.337 10.914 22.75 9.25462 22.75Z" fill="#2998FF"/>
      <path d="M16.827 22.5704C16.7164 22.5704 16.6242 22.5345 16.5505 22.4627C16.4767 22.3908 16.4398 22.3011 16.4398 22.1933C16.4398 22.1215 16.4583 22.0496 16.4951 21.9778L20.6251 16.1595L16.7533 10.5926C16.7164 10.5327 16.698 10.4609 16.698 10.3771C16.698 10.2694 16.7348 10.1796 16.8086 10.1077C16.8823 10.0359 16.9745 10 17.0851 10H18.9657C19.187 10 19.3775 10.1137 19.5373 10.3412L22.2476 14.2201L24.9763 10.3412C25.1361 10.1137 25.3266 10 25.5478 10H27.3363C27.4469 10 27.5391 10.0359 27.6128 10.1077C27.6866 10.1796 27.7234 10.2694 27.7234 10.3771C27.7234 10.4609 27.6989 10.5327 27.6497 10.5926L23.7963 16.1595L27.9263 21.9778C27.9754 22.0736 28 22.1454 28 22.1933C28 22.3011 27.957 22.3908 27.8709 22.4627C27.7972 22.5345 27.7111 22.5704 27.6128 22.5704H25.6585C25.4249 22.5704 25.2406 22.4627 25.1054 22.2472L22.1554 18.1887L19.2607 22.2472C19.1009 22.4627 18.9104 22.5704 18.6892 22.5704H16.827Z" fill="#2998FF"/>
    </g>
  </symbol>
  <symbol id="scroll-to-top">
    <g>
      <path d="M19.799 14.1421L8.48531 2.82843L11.3137 -4.94538e-07L22.6274 11.3137L19.799 14.1421Z" fill="white"/>
      <path d="M2.4301e-05 11.3137L11.3137 -4.94538e-07L14.1422 2.82843L2.82845 14.1421L2.4301e-05 11.3137Z" fill="white"/>
    </g>
  </symbol>
</svg>