<svg width="32" height="32" viewBox="0 0 32 32" fill="none" xmlns="http://www.w3.org/2000/svg">
<path d="M28 18.2442C28 16.8643 27.2559 15.6113 26.0196 14.8475C27.5299 13.1887 26.9992 10.5836 24.9531 9.49971C25.4242 7.5109 23.3562 5.66877 21.1478 6.10685C20.7005 3.87379 17.4391 3.22958 15.994 5.08494C14.5479 3.22864 11.2868 3.87515 10.8402 6.10685C8.63146 5.66872 6.56376 7.51113 7.03486 9.49966C6.86391 9.59301 6.70042 9.69795 6.54611 9.81348C6.32463 9.97931 6.29466 10.2751 6.47924 10.4742C6.66377 10.6732 6.99295 10.7001 7.21443 10.5342C7.38502 10.4065 7.57049 10.2964 7.76702 10.206H8.9894L9.62269 11.1917C8.75799 12.0861 9.4818 13.5178 10.8126 13.5129C11.4931 13.5129 12.0737 13.1208 12.2891 12.5747H15.472V19.223H13.8746L13.2412 18.2373C14.1918 17.2367 13.2163 15.703 11.7651 15.9396L10.9816 14.7201C10.8883 14.575 10.716 14.4856 10.5295 14.4856H7.00443C6.79887 14.2994 6.62551 14.0886 6.48791 13.8567C6.35229 13.6281 6.03612 13.5416 5.78169 13.6636C5.52732 13.7855 5.43112 14.0696 5.56678 14.2982C5.68225 14.4928 5.8163 14.6764 5.96784 14.8477C3.1258 16.5599 3.41707 20.5537 6.48671 21.919C6.39525 22.8805 6.74353 23.8492 7.44354 24.5796C7.98621 25.1477 8.71013 25.5498 9.50937 25.7322C10.4087 28.3845 14.4176 28.8159 15.9939 26.4643C17.5713 28.8171 21.5801 28.3831 22.4785 25.7322C23.2778 25.5497 24.0017 25.1477 24.5443 24.5796C25.2443 23.8493 25.5927 22.8805 25.5012 21.919C27.0318 21.2168 28 19.8115 28 18.2442ZM24.9833 14.4856H23.0245C22.838 14.4856 22.6657 14.575 22.5725 14.7201L21.789 15.9397C21.0334 15.8052 20.263 16.2257 20.0261 16.8543H16.5159V15.4463H17.8632C18.0497 15.4463 18.222 15.3569 18.3152 15.2118L19.2377 13.776C19.3309 13.6309 19.3309 13.452 19.2377 13.3069L18.3152 11.8712C18.222 11.726 18.0497 11.6366 17.8632 11.6366H16.5159V7.91736H17.8588L18.4921 8.90307C17.5416 9.90355 18.5171 11.4372 19.9683 11.2006L20.7518 12.4202C20.8451 12.5654 21.0174 12.6548 21.2039 12.6548H25.8486C25.8319 13.3425 25.5206 13.9984 24.9833 14.4856ZM22.0247 17.3234C22.0247 17.582 21.7906 17.7925 21.5027 17.7925C20.8103 17.7667 20.8105 16.8799 21.5027 16.8543C21.7906 16.8543 22.0247 17.0647 22.0247 17.3234ZM16.5159 12.5748H17.5618L18.1829 13.5415L17.5618 14.5081H16.5159V12.5748ZM19.6821 10.286C19.3943 10.286 19.1601 10.0756 19.1601 9.81695C19.1888 9.19466 20.1755 9.1948 20.2041 9.81695C20.204 10.0756 19.9699 10.286 19.6821 10.286ZM18.3325 4.9314C19.3341 4.9314 20.1491 5.6637 20.1491 6.56384V6.73872C20.1491 6.89868 20.2398 7.04767 20.3898 7.13389C20.5397 7.2201 20.7282 7.23164 20.8899 7.16461C22.6165 6.44582 24.4805 7.96925 23.8488 9.58208C23.7602 9.80968 23.8781 10.0606 24.1213 10.1623C24.8641 10.4728 25.4208 11.042 25.683 11.7166H21.5053L20.872 10.7309C21.8225 9.73041 20.847 8.19671 19.3959 8.43332L18.6124 7.21377C18.5191 7.06863 18.3468 6.97923 18.1603 6.97923H16.516V6.56389C16.5159 5.6637 17.3308 4.9314 18.3325 4.9314ZM8.0488 9.26784C7.7428 7.73845 9.53526 6.50324 11.0981 7.16456C11.2597 7.23169 11.4482 7.22001 11.5982 7.13384C11.7481 7.04762 11.8389 6.89864 11.8389 6.73867V6.5638C11.9389 4.39762 15.3728 4.39931 15.472 6.5638V8.25347H14.6642C14.0592 6.78446 11.655 7.13628 11.6216 8.72256C11.6551 10.3091 14.0595 10.6604 14.6642 9.19165H15.472V11.6366H12.2891C12.0524 11.0079 11.2818 10.5874 10.5263 10.722L9.74275 9.50238C9.64952 9.35724 9.47721 9.26784 9.2907 9.26784H8.0488ZM13.7096 8.72256C13.7096 8.98122 13.4754 9.19165 13.1876 9.19165C12.4951 9.1659 12.4953 8.27913 13.1876 8.25347C13.4754 8.25347 13.7096 8.46395 13.7096 8.72256ZM10.8125 12.5748C10.5247 12.5748 10.2905 12.3644 10.2905 12.1057C10.3191 11.4834 11.3059 11.4836 11.3345 12.1057C11.3345 12.3643 11.1003 12.5748 10.8125 12.5748ZM12.5733 17.3234C12.5733 17.582 12.3391 17.7925 12.0513 17.7925C11.3588 17.7667 11.359 16.8799 12.0513 16.8543C12.3391 16.8543 12.5733 17.0647 12.5733 17.3234ZM12.935 27.0725C11.7289 27.0725 10.6827 26.3025 10.4472 25.2415C10.4047 25.0496 10.234 24.9016 10.0191 24.8702C8.52513 24.6556 7.45137 23.466 7.51944 22.1061H11.0081L11.6415 23.0919C11.4071 23.3379 11.2654 23.6573 11.2654 24.0058C11.3514 25.8726 14.3116 25.8723 14.3974 24.0058C14.4076 23.137 13.4923 22.4556 12.5452 22.6221L11.7616 21.4025C11.6684 21.2574 11.4961 21.168 11.3095 21.168H7.16035C6.02526 20.7227 5.24607 19.7947 5.06984 18.7133H6.16547C6.77047 20.1823 9.17471 19.8305 9.20801 18.2442C9.17455 16.6577 6.77016 16.3063 6.16547 17.7751H5.06958C5.23171 16.7743 5.90859 15.9051 6.92201 15.4238H10.228L10.8613 16.4095C9.91084 17.41 10.8863 18.9436 12.3374 18.7071L13.1209 19.9267C13.2142 20.0718 13.3865 20.1612 13.573 20.1612H15.4718V24.7927C15.4719 26.0498 14.3339 27.0725 12.935 27.0725ZM12.8314 23.5367C13.1192 23.5367 13.3534 23.7471 13.3534 24.0058C13.3247 24.6281 12.3379 24.6279 12.3094 24.0058C12.3094 23.7471 12.5436 23.5367 12.8314 23.5367ZM7.12 18.2442C7.12 17.9855 7.35417 17.7751 7.64201 17.7751C8.33449 17.8009 8.33428 18.6876 7.64201 18.7133C7.35417 18.7133 7.12 18.5029 7.12 18.2442ZM19.0529 27.0725C17.654 27.0725 16.5159 26.0498 16.5159 24.7927V21.5679H17.7202C18.0004 22.3299 19.0519 22.7391 19.8715 22.3686L21.5305 23.8595V25.2845C21.2767 26.3232 20.2426 27.0725 19.0529 27.0725ZM19.1967 21.5679C18.9089 21.5679 18.6747 21.3575 18.6747 21.0988C18.7033 20.4765 19.6901 20.4767 19.7187 21.0988C19.7187 21.3575 19.4846 21.5679 19.1967 21.5679ZM22.5745 24.7225V23.6652C22.5745 23.5408 22.5195 23.4215 22.4216 23.3335L20.6097 21.7052C21.112 20.7948 20.3324 19.6783 19.1966 19.6915C18.5161 19.6915 17.9355 20.0837 17.7201 20.6297H16.5159V17.7925H20.0261C20.2416 18.3385 20.8222 18.7307 21.5027 18.7307C22.8337 18.7355 23.5571 17.3034 22.6926 16.4094L23.3259 15.4237H25.0658C26.4669 16.0714 27.219 17.5409 26.8757 18.9235H23.2782C22.9899 18.9235 22.7562 19.1336 22.7562 19.3926V20.7786C22.7562 20.9462 22.8557 21.1011 23.0172 21.1849L24.4535 21.9301C24.6084 23.1429 23.8047 24.3042 22.5745 24.7225ZM24.9637 21.1115L23.8003 20.5079V19.8618H26.4694C26.1224 20.3932 25.6045 20.8312 24.9637 21.1115Z" fill="#2998FF" stroke="#2998FF"/>
</svg>
