<svg width="32" height="32" viewBox="0 0 32 32" fill="none" xmlns="http://www.w3.org/2000/svg">
<path d="M27.9929 9.50755C27.9911 9.49741 27.9915 9.4867 27.9888 9.47674C27.9813 9.44935 27.9702 9.42302 27.9558 9.3984C27.9509 9.38995 27.9436 9.38318 27.9378 9.37529C27.9274 9.35943 27.9156 9.34447 27.9026 9.33058C27.8947 9.32269 27.8846 9.31724 27.8759 9.3101C27.863 9.29854 27.8492 9.28798 27.8346 9.27854L27.8321 9.2776L27.83 9.2761L25.0047 7.70235C24.9536 7.67386 24.8956 7.65887 24.8366 7.65887C24.7776 7.65887 24.7197 7.67386 24.6685 7.70235L21.8417 9.27591L21.8396 9.27741L21.8371 9.27835C21.8224 9.28785 21.8085 9.29847 21.7956 9.3101C21.7869 9.31705 21.7762 9.32269 21.7691 9.33039C21.7559 9.34445 21.744 9.3596 21.7335 9.37567C21.7279 9.38356 21.7208 9.39013 21.716 9.3984C21.7015 9.42302 21.6904 9.44935 21.6829 9.47674C21.6802 9.48632 21.6806 9.49665 21.6789 9.50642C21.6748 9.52441 21.6723 9.5427 21.6715 9.56109V10.2308L19.1574 8.7001C19.161 8.68365 19.1634 8.66694 19.1643 8.65013V5.90241C19.1634 5.88433 19.161 5.86636 19.157 5.84868C19.1553 5.83853 19.1556 5.82783 19.1529 5.81787C19.1454 5.79054 19.1343 5.76428 19.1199 5.73972C19.1131 5.72995 19.1058 5.72055 19.0981 5.71154C19.0888 5.69757 19.0784 5.68432 19.067 5.6719C19.0568 5.66315 19.0461 5.65499 19.0349 5.64747C19.0234 5.63746 19.0113 5.62823 18.9986 5.61986H18.9966L18.9953 5.61704L16.1683 4.04348C16.1171 4.01499 16.0592 4 16.0002 4C15.9412 4 15.8833 4.01499 15.8321 4.04348L13.0051 5.61704L13.0028 5.61873H13.0009C12.988 5.62716 12.9758 5.63645 12.9643 5.64653C12.9532 5.654 12.9426 5.66209 12.9325 5.67077C12.9209 5.68336 12.9104 5.6968 12.901 5.71097C12.8933 5.71981 12.8862 5.72903 12.8795 5.73859C12.8651 5.76321 12.854 5.78954 12.8465 5.81693C12.8438 5.82651 12.8442 5.83684 12.8424 5.84661C12.8384 5.8646 12.8359 5.88289 12.8351 5.90128V8.65013C12.836 8.667 12.8384 8.68377 12.842 8.70029L10.3285 10.2308V9.56128C10.3276 9.5432 10.3251 9.52523 10.3211 9.50755C10.3194 9.49741 10.3198 9.4867 10.3171 9.47674C10.3096 9.44935 10.2985 9.42302 10.284 9.3984C10.2792 9.38995 10.2719 9.38318 10.2661 9.37529C10.2557 9.35943 10.2439 9.34447 10.2309 9.33058C10.223 9.32269 10.2129 9.31724 10.2042 9.3101C10.1913 9.29854 10.1775 9.28798 10.1629 9.27854L10.1604 9.2776L10.1583 9.2761L7.33265 7.70235C7.28146 7.67386 7.22351 7.65887 7.16454 7.65887C7.10556 7.65887 7.04761 7.67386 6.99643 7.70235L4.17024 9.27591L4.16811 9.27741L4.1656 9.27835C4.15091 9.28785 4.13702 9.29847 4.12405 9.3101C4.11536 9.31705 4.10473 9.32269 4.09758 9.33039C4.08439 9.34445 4.0725 9.3596 4.06203 9.37567C4.05642 9.38356 4.04927 9.39013 4.04444 9.3984C4.03001 9.42302 4.0189 9.44935 4.0114 9.47674C4.0087 9.48632 4.00908 9.49665 4.00734 9.50642C4.0033 9.52441 4.00084 9.5427 4 9.56109V12.3088C3.99999 12.3678 4.01633 12.4258 4.04731 12.4766C4.07828 12.5273 4.12275 12.5691 4.17603 12.5974L6.82619 14.0043V17.7688L4.17024 19.2476L4.16811 19.2491L4.1656 19.2501C4.15091 19.2596 4.13702 19.2702 4.12405 19.2818C4.11536 19.2888 4.10473 19.2944 4.09758 19.3021C4.08439 19.3162 4.0725 19.3313 4.06203 19.3474C4.05642 19.3553 4.04927 19.3619 4.04444 19.3701C4.03001 19.3947 4.0189 19.4211 4.0114 19.4485C4.0087 19.458 4.00908 19.4684 4.00734 19.4781C4.0033 19.4961 4.00084 19.5144 4 19.5328V22.2805C4.00003 22.3396 4.01643 22.3976 4.04747 22.4484C4.07852 22.4991 4.12306 22.5408 4.17642 22.5691L7.00242 24.0688C7.0183 24.0764 7.03478 24.0826 7.05169 24.0876C7.06077 24.0908 7.06927 24.0955 7.07855 24.0978C7.13479 24.1126 7.19409 24.1126 7.25033 24.0978C7.25961 24.0953 7.26811 24.0906 7.27719 24.0876C7.2941 24.0826 7.31058 24.0764 7.32646 24.0688L9.726 22.7953L12.837 24.809V26.1716C12.837 26.2306 12.8533 26.2886 12.8843 26.3394C12.9153 26.3901 12.9598 26.4319 13.013 26.4602L15.839 27.9599C15.8549 27.9674 15.8714 27.9737 15.8883 27.9787C15.8974 27.9819 15.9059 27.9866 15.9152 27.9888C15.9714 28.0037 16.0307 28.0037 16.087 27.9888C16.0962 27.9864 16.1047 27.9817 16.1138 27.9787C16.1307 27.9737 16.1472 27.9674 16.1631 27.9599L18.9883 26.4598C19.0416 26.4315 19.0861 26.3898 19.117 26.339C19.148 26.2882 19.1644 26.2303 19.1643 26.1712V24.8086L22.2754 22.7949L24.6749 24.0685C24.6908 24.076 24.7073 24.0823 24.7242 24.0872C24.7332 24.0904 24.7417 24.0951 24.751 24.0974C24.8073 24.1123 24.8666 24.1123 24.9228 24.0974C24.9321 24.0949 24.9406 24.0902 24.9497 24.0872C24.9666 24.0823 24.9831 24.076 24.9989 24.0685L27.824 22.5691C27.8773 22.5408 27.9217 22.4991 27.9527 22.4483C27.9837 22.3975 28 22.3396 28 22.2805V19.533C27.9991 19.5149 27.9966 19.4969 27.9927 19.4793C27.9909 19.4691 27.9913 19.4584 27.9886 19.4485C27.9811 19.4211 27.97 19.3947 27.9556 19.3701C27.9507 19.3617 27.9434 19.3549 27.9376 19.347C27.9272 19.3312 27.9154 19.3162 27.9024 19.3023C27.8945 19.2944 27.8844 19.289 27.8758 19.2818C27.8628 19.2703 27.849 19.2597 27.8344 19.2503L27.8319 19.2493L27.8298 19.2478L25.1738 17.7689V14.0043L27.8238 12.5979C27.8771 12.5696 27.9215 12.5279 27.9525 12.4771C27.9835 12.4264 27.9998 12.3684 27.9998 12.3094V9.56128C27.999 9.54321 27.9967 9.52524 27.9929 9.50755V9.50755ZM18.0469 23.4632L16.0002 24.5494L13.9535 23.4632L13.8669 23.4171L16.0002 22.2294L18.1335 23.4164L18.0469 23.4632ZM9.65219 12.1138L7.5025 13.2545V11.2562L9.65219 10.1155V12.1138ZM7.16434 18.3382L9.29761 19.5259L9.21104 19.5719L7.16434 20.6581L5.11765 19.5719L5.03108 19.5259L7.16434 18.3382ZM9.96193 19.1381L7.5025 17.7686V14.0043L9.74281 12.8153L12.836 14.7721V17.1708L9.96193 19.1381ZM13.5124 8.45494V6.45661L15.662 7.59808V9.59585L13.5124 8.45494ZM18.488 8.45494L16.3383 9.59585V7.59808L18.488 6.45699V8.45494ZM16.0002 13.399L18.1335 14.5867L18.0469 14.6327L16.0002 15.719L13.9535 14.6327L13.8669 14.5867L16.0002 13.399ZM13.5124 15.1478L15.662 16.2887V18.2876L13.5124 17.1464V15.1478ZM16.3383 16.2887L18.488 15.1478V17.1464L16.3383 18.2876V16.2887ZM19.1643 14.7721L22.2576 12.8147L24.4979 14.0043V17.7688L22.0385 19.1383L19.1643 17.1708V14.7721ZM24.4975 11.2562V13.2545L22.3482 12.1138V10.1155L24.4975 11.2562ZM22.3482 22.0855V20.087L24.4979 21.2279V23.2263L22.3482 22.0855ZM26.8827 19.5719L24.836 20.6581L22.7892 19.5719L22.7026 19.5259L24.8359 18.3382L26.9691 19.5259L26.8827 19.5719ZM24.836 8.36645L26.9693 9.55414L26.8827 9.60017L24.836 10.6864L22.7892 9.60017L22.7026 9.55414L24.836 8.36645ZM21.6837 12.3932L18.815 14.2085L16.3383 12.8296V10.3451L18.6069 9.14084L21.6717 11.0067V12.3086C21.6719 12.3372 21.6759 12.3656 21.6837 12.3932V12.3932ZM16.0002 4.70777L18.1333 5.89564L16.0937 6.97813L16.0002 7.02772L15.9067 6.97813L13.8671 5.89546L16.0002 4.70777ZM13.3935 9.1414L15.662 10.3456V12.8296L13.1854 14.2085L10.3167 12.3932C10.3244 12.3656 10.3284 12.3372 10.3285 12.3086V11.0067L13.3935 9.1414ZM7.16434 8.36645L9.29761 9.55414L9.21104 9.60017L7.16434 10.6864L5.11765 9.60017L5.03108 9.55414L7.16434 8.36645ZM4.67689 10.1155L6.82658 11.2564V13.2545L4.67689 12.1138V10.1155ZM4.67689 20.0872L6.82658 21.2281V23.2264L4.67689 22.0855V20.0872ZM7.50288 21.2281L9.65257 20.0872V22.0855L7.50288 23.2263V21.2281ZM10.3097 22.3831C10.3218 22.3501 10.3284 22.3154 10.3291 22.2803V19.6916L13.1968 17.728L15.662 19.0363V21.66L13.0051 23.1389L13.003 23.1404L13.0005 23.1413C12.9858 23.1508 12.9719 23.1615 12.9589 23.1731C12.9502 23.18 12.9396 23.1857 12.9325 23.1934C12.9193 23.2074 12.9074 23.2226 12.8969 23.2387C12.8913 23.2465 12.8842 23.2531 12.8793 23.2614C12.8649 23.286 12.8538 23.3123 12.8463 23.3397C12.8436 23.3493 12.844 23.3596 12.8422 23.3694C12.8382 23.3874 12.8357 23.4057 12.8349 23.4241V24.0189L10.3097 22.3831ZM13.5124 24.6313V23.9781L15.662 25.119V27.1173L13.5124 25.9766V24.6313ZM16.3383 27.1173V25.1192L18.488 23.9783V25.9768L16.3383 27.1173ZM19.1643 23.4241C19.1634 23.406 19.161 23.388 19.157 23.3703C19.1553 23.3602 19.1556 23.3495 19.1529 23.3395C19.1454 23.3121 19.1343 23.2858 19.1199 23.2612C19.1151 23.2527 19.1077 23.246 19.1019 23.2381C19.0916 23.2222 19.0798 23.2073 19.0668 23.1934C19.0588 23.1855 19.0488 23.18 19.0401 23.1729C19.0272 23.1613 19.0134 23.1508 18.9987 23.1413L18.9962 23.1404L18.9941 23.1389L16.3383 21.66V19.0363L18.8036 17.728L21.6719 19.6916V22.2805C21.6726 22.3156 21.6791 22.3503 21.6912 22.3833L19.1649 24.019L19.1643 23.4241ZM25.1738 23.2261V21.2279L27.3235 20.087V22.0855L25.1738 23.2261ZM25.1738 13.2543V11.2562L27.3235 10.1155V12.1138L25.1738 13.2543Z" stroke="#2998FF"/>
</svg>
