<svg width="32" height="32" viewBox="0 0 32 32" fill="none" xmlns="http://www.w3.org/2000/svg">
<path d="M9.25462 22.75C7.59527 22.75 6.30466 22.337 5.3828 21.5109C4.46093 20.6849 4 19.4338 4 17.7577V10.4489C4 10.3173 4.03687 10.2095 4.11062 10.1257C4.19666 10.0419 4.30729 10 4.44249 10H6.12029C6.25549 10 6.35997 10.0419 6.43372 10.1257C6.51976 10.2095 6.56278 10.3173 6.56278 10.4489V17.7577C6.56278 18.7155 6.79632 19.4398 7.2634 19.9306C7.73047 20.4095 8.39422 20.6489 9.25462 20.6489C10.115 20.6489 10.7726 20.4095 11.2274 19.9306C11.6945 19.4398 11.928 18.7155 11.928 17.7577V10.4489C11.928 10.3173 11.971 10.2095 12.0571 10.1257C12.1431 10.0419 12.2538 10 12.389 10H14.0483C14.1835 10 14.288 10.0419 14.3617 10.1257C14.4478 10.2095 14.4908 10.3173 14.4908 10.4489V17.7577C14.4908 19.4338 14.0299 20.6849 13.108 21.5109C12.1984 22.337 10.914 22.75 9.25462 22.75Z" fill="#2998FF"/>
<path d="M16.827 22.5704C16.7164 22.5704 16.6242 22.5345 16.5505 22.4627C16.4767 22.3908 16.4398 22.3011 16.4398 22.1933C16.4398 22.1215 16.4583 22.0496 16.4951 21.9778L20.6251 16.1595L16.7533 10.5926C16.7164 10.5327 16.698 10.4609 16.698 10.3771C16.698 10.2694 16.7348 10.1796 16.8086 10.1077C16.8823 10.0359 16.9745 10 17.0851 10H18.9657C19.187 10 19.3775 10.1137 19.5373 10.3412L22.2476 14.2201L24.9763 10.3412C25.1361 10.1137 25.3266 10 25.5478 10H27.3363C27.4469 10 27.5391 10.0359 27.6128 10.1077C27.6866 10.1796 27.7234 10.2694 27.7234 10.3771C27.7234 10.4609 27.6989 10.5327 27.6497 10.5926L23.7963 16.1595L27.9263 21.9778C27.9754 22.0736 28 22.1454 28 22.1933C28 22.3011 27.957 22.3908 27.8709 22.4627C27.7972 22.5345 27.7111 22.5704 27.6128 22.5704H25.6585C25.4249 22.5704 25.2406 22.4627 25.1054 22.2472L22.1554 18.1887L19.2607 22.2472C19.1009 22.4627 18.9104 22.5704 18.6892 22.5704H16.827Z" fill="#2998FF"/>
</svg>
