<svg width="32" height="32" viewBox="0 0 32 32" fill="none" xmlns="http://www.w3.org/2000/svg">
<path d="M21.6533 15.3466L23.7467 13.2533L18.7467 8.25327L16.6533 10.3466L11.1333 4.83994C10.0933 3.79994 8.4 3.79994 7.36 4.83994L4.82667 7.37327C3.78667 8.41327 3.78667 10.1066 4.82667 11.1466L10.3333 16.6533L4 22.9999V27.9999H9L15.3467 21.6533L20.8533 27.1599C22.12 28.4266 23.8267 27.9599 24.6267 27.1599L27.16 24.6266C28.2 23.5866 28.2 21.8933 27.16 20.8533L21.6533 15.3466ZM12.24 14.7599L6.72 9.25327L9.24 6.71994L10.9333 8.41327L9.36 9.99994L11.24 11.8799L12.8267 10.2933L14.76 12.2266L12.24 14.7599ZM22.7467 25.2799L17.24 19.7733L19.7733 17.2399L21.7067 19.1733L20.12 20.7599L22 22.6399L23.5867 21.0533L25.28 22.7466L22.7467 25.2799Z" fill="#2998FF"/>
<path d="M27.6133 9.38665C28.1333 8.86665 28.1333 8.02665 27.6133 7.50665L24.4933 4.38665C23.8667 3.75999 23 3.99999 22.6133 4.38665L20.1733 6.82665L25.1733 11.8267L27.6133 9.38665Z" fill="#2998FF"/>
</svg>
